<svg xmlns="http://www.w3.org/2000/svg" width="101" height="100" fill="none" viewBox="0 0 101 100"><circle cx="50.5" cy="50" r="50" fill="#EAB308"/><g clip-path="url(#clip0_167_24)"><path fill="#fff" d="M67.9369 78.707H26.4239C25.9661 78.707 25.5272 78.5252 25.2035 78.2015C24.8798 77.8779 24.698 77.4389 24.698 76.9811V39.7253C24.698 39.4828 24.7492 39.243 24.8481 39.0215C24.947 38.8001 25.0915 38.602 25.2721 38.4401L43.9231 21.7337C44.2395 21.4505 44.649 21.2936 45.0737 21.293H67.9357C68.1624 21.293 68.3868 21.3376 68.5962 21.4244C68.8056 21.5111 68.9958 21.6382 69.1561 21.7985C69.3164 21.9587 69.4435 22.149 69.5302 22.3584C69.6169 22.5678 69.6616 22.7922 69.6616 23.0189V44.9835C69.6616 45.4412 69.4798 45.8802 69.1561 46.2038C68.8324 46.5275 68.3934 46.7093 67.9357 46.7093C67.478 46.7093 67.039 46.5275 66.7153 46.2038C66.3917 45.8802 66.2098 45.4412 66.2098 44.9835V24.7447H45.7364L28.1497 40.4962V75.2553H66.211V58.5488C66.211 58.0911 66.3928 57.6521 66.7165 57.3284C67.0402 57.0048 67.4791 56.823 67.9369 56.823C68.3946 56.823 68.8336 57.0048 69.1572 57.3284C69.4809 57.6521 69.6627 58.0911 69.6627 58.5488V76.9811C69.6627 77.4389 69.4809 77.8779 69.1572 78.2015C68.8336 78.5252 68.3946 78.707 67.9369 78.707Z"/><path fill="#fff" d="M45.0749 41.4512H26.4239C26.0746 41.4511 25.7334 41.3451 25.4457 41.147C25.1579 40.9489 24.937 40.6682 24.8121 40.3419C24.6873 40.0156 24.6645 39.6591 24.7466 39.3195C24.8288 38.9799 25.012 38.6733 25.2722 38.4401L43.9231 21.7337C44.1714 21.5112 44.4787 21.3655 44.8079 21.3139C45.1372 21.2624 45.4744 21.3073 45.7787 21.4432C46.083 21.5791 46.3414 21.8002 46.5228 22.0798C46.7042 22.3594 46.8007 22.6856 46.8007 23.0189V39.7253C46.8007 40.183 46.6189 40.622 46.2952 40.9457C45.9716 41.2693 45.5326 41.4512 45.0749 41.4512ZM30.9377 37.9994H43.349V26.8814L30.9377 37.9994ZM51.1005 70.3193C50.8375 70.3193 50.5781 70.2593 50.3419 70.1438C50.1057 70.0283 49.899 69.8603 49.7376 69.6528C49.5762 69.4452 49.4644 69.2035 49.4106 68.9461C49.3569 68.6887 49.3627 68.4225 49.4275 68.1677L51.739 59.0896C51.8153 58.789 51.9716 58.5147 52.1912 58.2957L74.1892 36.2966C75.1611 35.3272 76.4777 34.7829 77.8503 34.7829C79.223 34.7829 80.5396 35.3272 81.5115 36.2966L83.4076 38.1939C84.377 39.1658 84.9213 40.4824 84.9213 41.855C84.9213 43.2277 84.377 44.5443 83.4076 45.5162L61.4085 67.5142C61.1888 67.734 60.9137 67.8902 60.6123 67.9663L51.5227 70.2675C51.3847 70.3023 51.2428 70.3197 51.1005 70.3193ZM54.9664 60.4001L53.4891 66.2094L59.3053 64.7366L80.9673 43.0746C81.2903 42.7505 81.4717 42.3115 81.4717 41.8539C81.4717 41.3962 81.2903 40.9572 80.9673 40.6331L79.0711 38.737C78.7468 38.4142 78.3079 38.233 77.8503 38.233C77.3928 38.233 76.9539 38.4142 76.6296 38.737L54.9664 60.4001Z"/><path fill="#fff" d="M79.7786 48.4306C79.552 48.4307 79.3276 48.3861 79.1183 48.2992C78.909 48.2123 78.7189 48.0849 78.559 47.9243L71.7798 41.1474C71.4654 40.8219 71.2914 40.386 71.2954 39.9334C71.2993 39.4809 71.4808 39.0481 71.8008 38.7281C72.1208 38.4081 72.5536 38.2266 73.0062 38.2226C73.4587 38.2187 73.8946 38.3927 74.2201 38.707L80.9982 45.484C81.2393 45.7253 81.4034 46.0327 81.4699 46.3673C81.5363 46.7019 81.5022 47.0487 81.3717 47.3638C81.2412 47.679 81.0202 47.9484 80.7367 48.1381C80.4531 48.3278 80.1197 48.4303 79.7786 48.4306Z"/></g><defs><clipPath id="clip0_167_24"><rect width="73.637" height="73.637" fill="#fff" transform="translate(17.9924 13.1814)"/></clipPath></defs></svg>