<svg width="1em" height="1em" viewBox="0 0 53 53" fill="none" xmlns="http://www.w3.org/2000/svg">
<path d="M24.1667 14.5833C25.4596 14.5833 26.6996 14.0697 27.6138 13.1555C28.5281 12.2412 29.0417 11.0013 29.0417 9.70834C29.0417 8.41541 28.5281 7.17543 27.6138 6.26119C26.6996 5.34695 25.4596 4.83334 24.1667 4.83334C22.8738 4.83334 21.6338 5.34695 20.7196 6.26119C19.8053 7.17543 19.2917 8.41541 19.2917 9.70834C19.2917 11.0013 19.8053 12.2412 20.7196 13.1555C21.6338 14.0697 22.8738 14.5833 24.1667 14.5833ZM38.25 27.5833C37.3881 27.5833 36.5614 27.9257 35.9519 28.5352C35.3424 29.1447 35 29.9714 35 30.8333V31.2049C35 31.4922 35.1142 31.7678 35.3173 31.971C35.5205 32.1741 35.7961 32.2883 36.0834 32.2883C36.3707 32.2883 36.6462 32.1741 36.8494 31.971C37.0526 31.7678 37.1667 31.4922 37.1667 31.2049V30.8333C37.1667 30.546 37.2808 30.2705 37.484 30.0673C37.6872 29.8641 37.9627 29.75 38.25 29.75C38.5374 29.75 38.8129 29.8641 39.0161 30.0673C39.2192 30.2705 39.3334 30.546 39.3334 30.8333V47.0248C39.3334 47.3122 39.4475 47.5877 39.6507 47.7909C39.8538 47.994 40.1294 48.1082 40.4167 48.1082C40.704 48.1082 40.9796 47.994 41.1827 47.7909C41.3859 47.5877 41.5 47.3122 41.5 47.0248V30.8333C41.5 29.9714 41.1576 29.1447 40.5481 28.5352C39.9386 27.9257 39.112 27.5833 38.25 27.5833ZM32.5181 22.3606L30.6667 21.5524L32.3946 22.2858L32.5181 22.3606ZM33.8463 23.5111C33.4696 23.0574 33.0209 22.6687 32.5181 22.3606L39.3334 25.3387V25.2347V25.2368C39.4363 26.4285 38.5155 27.4761 37.2761 27.5768C36.0476 27.6743 34.9665 26.8033 34.8484 25.6258V25.6236C34.8159 25.4325 34.7689 25.2441 34.7075 25.0603C34.5177 24.4955 34.2258 23.9704 33.8463 23.5111Z" fill="#121212"/>
<path fill-rule="evenodd" clip-rule="evenodd" d="M39.3334 25.2336L32.3946 22.2869C31.8515 21.9708 31.271 21.7237 30.6667 21.5513V46C30.6665 46.5558 30.4527 47.0903 30.0695 47.4929C29.6863 47.8955 29.1631 48.1355 28.608 48.1632C28.0528 48.1909 27.5083 48.0041 27.087 47.6417C26.6656 47.2792 26.3997 46.7686 26.3442 46.2156L25.2609 35.3823C25.2537 35.3106 25.2501 35.2387 25.25 35.1667H23.0834C23.0834 35.2382 23.0801 35.3108 23.0725 35.3823L21.9892 46.2156C21.9337 46.7686 21.6678 47.2792 21.2464 47.6417C20.8251 48.0041 20.2806 48.1909 19.7254 48.1632C19.1703 48.1355 18.6471 47.8955 18.2639 47.4929C17.8807 47.0903 17.6669 46.5558 17.6667 46V30.7456C15.8478 30.504 14.3192 29.7727 13.186 28.6602C12.5368 28.0238 12.0231 27.2625 11.676 26.4223C11.329 25.582 11.1557 24.6801 11.1667 23.7711C11.1757 22.8647 11.3641 21.969 11.7211 21.1358C12.0781 20.3026 12.5966 19.5484 13.2467 18.9167C14.6442 17.5528 16.6365 16.75 19.0263 16.75H26.9563C32.3437 16.75 35.5623 18.6155 37.378 20.8223C38.092 21.6879 38.6406 22.6776 38.9965 23.7418C39.1546 24.2185 39.2781 24.7092 39.3312 25.2076V25.2238L39.3334 25.2303V25.2336ZM16.4003 25.6258C16.6787 25.8988 17.0839 26.1631 17.6667 26.3278V21.2675C17.125 21.4322 16.7307 21.6889 16.4501 21.9619C16.2046 22.2037 16.0092 22.4916 15.8754 22.8092C15.7415 23.1268 15.6718 23.4676 15.6701 23.8122C15.6636 24.5056 15.9215 25.1556 16.4003 25.6258Z" fill="#121212"/>
</svg>
