<svg width="101" height="100" viewBox="0 0 101 100" fill="none" xmlns="http://www.w3.org/2000/svg">
<circle cx="50.6667" cy="50" r="50" fill="#EAB308"/>
<g clip-path="url(#clip0_167_25)">
<path d="M27.6552 43.8283C27.0449 43.8283 26.4596 44.0708 26.028 44.5023C25.5964 44.9339 25.354 45.5192 25.354 46.1295V78.3458C25.354 78.9561 25.5964 79.5414 26.028 79.9729C26.4596 80.4045 27.0449 80.6469 27.6552 80.6469H73.6784C74.2887 80.6469 74.8741 80.4045 75.3056 79.9729C75.7372 79.5414 75.9796 78.9561 75.9796 78.3458V46.1295C75.9796 45.5192 75.7372 44.9339 75.3056 44.5023C74.8741 44.0708 74.2887 43.8283 73.6784 43.8283H59.8715C59.2612 43.8283 58.6758 44.0708 58.2443 44.5023C57.8127 44.9339 57.5703 45.5192 57.5703 46.1295C57.5703 46.7398 57.8127 47.3251 58.2443 47.7566C58.6758 48.1882 59.2612 48.4306 59.8715 48.4306H71.3773V76.0446H29.9563V48.4306H41.4621C42.0725 48.4306 42.6578 48.1882 43.0893 47.7566C43.5209 47.3251 43.7633 46.7398 43.7633 46.1295C43.7633 45.5192 43.5209 44.9339 43.0893 44.5023C42.6578 44.0708 42.0725 43.8283 41.4621 43.8283H27.6552Z" fill="white"/>
<path d="M50.6346 16.2143C50.0355 16.2229 49.4634 16.4648 49.0399 16.8886L37.5341 28.3944C37.3143 28.6067 37.139 28.8606 37.0184 29.1413C36.8978 29.4221 36.8343 29.7241 36.8316 30.0296C36.829 30.3352 36.8872 30.6382 37.0029 30.921C37.1186 31.2038 37.2895 31.4607 37.5055 31.6768C37.7216 31.8928 37.9785 32.0637 38.2613 32.1794C38.5441 32.2951 38.8472 32.3533 39.1527 32.3507C39.4582 32.348 39.7602 32.2845 40.041 32.1639C40.3217 32.0433 40.5756 31.868 40.7879 31.6482L48.3656 24.0705V59.9042C48.3517 60.2151 48.401 60.5255 48.5103 60.8168C48.6197 61.1081 48.787 61.3743 49.002 61.5991C49.2171 61.824 49.4755 62.003 49.7616 62.1253C50.0477 62.2476 50.3556 62.3106 50.6668 62.3106C50.978 62.3106 51.2859 62.2476 51.572 62.1253C51.8582 62.003 52.1165 61.824 52.3316 61.5991C52.5466 61.3743 52.7139 61.1081 52.8233 60.8168C52.9327 60.5255 52.9819 60.2151 52.968 59.9042V24.0705L60.5457 31.6482C60.758 31.868 61.0119 32.0433 61.2926 32.1639C61.5734 32.2845 61.8754 32.348 62.1809 32.3507C62.4865 32.3533 62.7895 32.2951 63.0723 32.1794C63.3551 32.0637 63.612 31.8928 63.8281 31.6768C64.0441 31.4607 64.215 31.2038 64.3307 30.921C64.4464 30.6382 64.5046 30.3352 64.502 30.0296C64.4993 29.7241 64.4358 29.4221 64.3152 29.1413C64.1946 28.8606 64.0193 28.6067 63.7995 28.3944L52.2937 16.8886C52.0765 16.6713 51.8181 16.4997 51.5335 16.3839C51.2489 16.2681 50.9441 16.2104 50.6369 16.2143H50.6346Z" fill="white"/>
</g>
<defs>
<clipPath id="clip0_167_25">
<rect width="73.6372" height="73.6372" fill="white" transform="translate(13.8481 11.612)"/>
</clipPath>
</defs>
</svg>
