<svg xmlns="http://www.w3.org/2000/svg" width="101" height="100" fill="none" viewBox="0 0 101 100"><circle cx="50.333" cy="50" r="50" fill="#EAB308"/><path fill="#fff" d="M80.8595 50.9945C80.8595 66.493 67.7528 79.108 51.6331 79.108C45.6824 79.108 39.9576 77.378 35.0614 74.2062C33.7056 73.2691 33.3289 71.539 34.3082 70.1694C35.2874 68.8718 37.0952 68.5114 38.5264 69.4485C42.368 71.9715 46.9629 73.3412 51.6331 73.3412C64.4385 73.3412 74.8334 63.3212 74.8334 50.9945C74.8334 38.6678 64.4385 28.6479 51.6331 28.6479C39.129 28.6479 28.8847 38.2353 28.4328 50.2016L35.4381 43.4255C36.6433 42.2721 38.5264 42.2721 39.7316 43.4255C40.9368 44.5789 40.9368 46.381 39.7316 47.5344L28.2068 58.5635C27.6042 59.1402 26.8509 59.4286 26.0977 59.4286C25.2691 59.4286 24.5158 59.1402 23.9886 58.5635L12.4637 47.4623C11.2585 46.3089 11.2585 44.5068 12.4637 43.3534C13.6689 42.2 15.5521 42.2 16.7573 43.3534L22.482 48.904C23.5366 34.4148 36.1913 22.881 51.6331 22.881C67.7528 22.881 80.8595 35.4961 80.8595 50.9945ZM51.4824 34.631C49.8253 34.631 48.4694 35.9286 48.4694 37.5145V50.9945C48.4694 51.7875 48.846 52.5083 49.4487 53.0129L55.9267 59.2123C56.5293 59.789 57.2825 60.0773 58.1111 60.0773C58.8644 60.0773 59.6929 59.789 60.2202 59.2123C61.4254 58.0589 61.3501 56.2568 60.1449 55.1034L54.4955 49.7691V37.5145C54.4955 35.9286 53.1396 34.631 51.4824 34.631Z"/></svg>